<svg width="15" height="15" viewBox="0 0 15 15" fill="none" xmlns="http://www.w3.org/2000/svg">
<path d="M7.5 14C11.0899 14 14 11.0899 14 7.5C14 3.91015 11.0899 1 7.5 1C3.91015 1 1 3.91015 1 7.5C1 11.0899 3.91015 14 7.5 14Z" fill="#2BE080"/>
<path fill-rule="evenodd" clip-rule="evenodd" d="M7.5 13.125C10.6066 13.125 13.125 10.6066 13.125 7.5C13.125 4.3934 10.6066 1.875 7.5 1.875C4.39341 1.875 1.875 4.3934 1.875 7.5C1.875 10.6066 4.39341 13.125 7.5 13.125ZM7.5 15C11.6422 15 15 11.6422 15 7.5C15 3.35786 11.6422 0 7.5 0C3.35786 0 0 3.35786 0 7.5C0 11.6422 3.35786 15 7.5 15Z" fill="white"/>
</svg>
